<?xml version="1.0" encoding="UTF-8" standalone="no"?>
<!DOCTYPE svg PUBLIC "-//W3C//DTD SVG 1.1//EN"
 "http://www.w3.org/Graphics/SVG/1.1/DTD/svg11.dtd">
<!-- Generated by graphviz version 2.40.1 (20161225.0304)
 -->
<!-- Title: classes Pages: 1 -->
<svg width="887pt" height="1161pt"
 viewBox="0.00 0.00 886.50 1161.00" xmlns="http://www.w3.org/2000/svg" xmlns:xlink="http://www.w3.org/1999/xlink">
<g id="graph0" class="graph" transform="scale(1 1) rotate(0) translate(4 1157)">
<title>classes</title>
<polygon fill="#ffffff" stroke="transparent" points="-4,4 -4,-1157 882.5,-1157 882.5,4 -4,4"/>
<!-- 0 -->
<g id="node1" class="node">
<title>0</title>
<polygon fill="none" stroke="#000000" points="754,-444 754,-513 841,-513 841,-444 754,-444"/>
<text text-anchor="middle" x="797.5" y="-497.8" font-family="Times,serif" font-size="14.00" fill="#000000">AboutDialog</text>
<polyline fill="none" stroke="#000000" points="754,-490 841,-490 "/>
<text text-anchor="start" x="762" y="-474.8" font-family="Times,serif" font-size="14.00" fill="#000000">ui</text>
<polyline fill="none" stroke="#000000" points="754,-467 841,-467 "/>
<text text-anchor="middle" x="797.5" y="-451.8" font-family="Times,serif" font-size="14.00" fill="#000000"> </text>
</g>
<!-- 1 -->
<g id="node2" class="node">
<title>1</title>
<polygon fill="none" stroke="#000000" points="574,-730 574,-949 717,-949 717,-730 574,-730"/>
<text text-anchor="middle" x="645.5" y="-933.8" font-family="Times,serif" font-size="14.00" fill="#000000">AdminWindow</text>
<polyline fill="none" stroke="#000000" points="574,-926 717,-926 "/>
<text text-anchor="start" x="582" y="-910.8" font-family="Times,serif" font-size="14.00" fill="#000000">aboutDialog</text>
<text text-anchor="start" x="582" y="-895.8" font-family="Times,serif" font-size="14.00" fill="#000000">changePasswordDialog</text>
<text text-anchor="start" x="582" y="-880.8" font-family="Times,serif" font-size="14.00" fill="#000000">messageBox</text>
<text text-anchor="start" x="582" y="-865.8" font-family="Times,serif" font-size="14.00" fill="#000000">onExit</text>
<text text-anchor="start" x="582" y="-850.8" font-family="Times,serif" font-size="14.00" fill="#000000">ui</text>
<polyline fill="none" stroke="#000000" points="574,-843 717,-843 "/>
<text text-anchor="start" x="582" y="-827.8" font-family="Times,serif" font-size="14.00" fill="#000000">addNewUser()</text>
<text text-anchor="start" x="582" y="-812.8" font-family="Times,serif" font-size="14.00" fill="#000000">changePassword()</text>
<text text-anchor="start" x="582" y="-797.8" font-family="Times,serif" font-size="14.00" fill="#000000">closeAdmin()</text>
<text text-anchor="start" x="582" y="-782.8" font-family="Times,serif" font-size="14.00" fill="#000000">enter(admin, users)</text>
<text text-anchor="start" x="582" y="-767.8" font-family="Times,serif" font-size="14.00" fill="#000000">setAdmin(admin)</text>
<text text-anchor="start" x="582" y="-752.8" font-family="Times,serif" font-size="14.00" fill="#000000">tableInput(item)</text>
<text text-anchor="start" x="582" y="-737.8" font-family="Times,serif" font-size="14.00" fill="#000000">updateTable()</text>
</g>
<!-- 0&#45;&gt;1 -->
<g id="edge1" class="edge">
<title>0&#45;&gt;1</title>
<path fill="none" stroke="#000000" d="M794.1302,-513.1458C788.9923,-548.965 776.1744,-604.6408 744.5,-641 732.4879,-654.7887 719.6192,-645.3053 707.5,-659 692.3538,-676.1152 680.8686,-697.1112 672.171,-718.6543"/>
<polygon fill="#000000" stroke="#000000" points="672.1398,-718.7366 673.7445,-725.7669 667.8722,-729.9521 666.2675,-722.9218 672.1398,-718.7366"/>
<text text-anchor="middle" x="741" y="-662.8" font-family="Times,serif" font-size="14.00" fill="#00ff00">aboutDialog</text>
</g>
<!-- 3 -->
<g id="node4" class="node">
<title>3</title>
<polygon fill="none" stroke="#000000" points="596.5,-1038.5 596.5,-1152.5 694.5,-1152.5 694.5,-1038.5 596.5,-1038.5"/>
<text text-anchor="middle" x="645.5" y="-1137.3" font-family="Times,serif" font-size="14.00" fill="#000000">MainApp</text>
<polyline fill="none" stroke="#000000" points="596.5,-1129.5 694.5,-1129.5 "/>
<text text-anchor="start" x="604.5" y="-1114.3" font-family="Times,serif" font-size="14.00" fill="#000000">aboutDialog</text>
<text text-anchor="start" x="604.5" y="-1099.3" font-family="Times,serif" font-size="14.00" fill="#000000">adminWindow</text>
<text text-anchor="start" x="604.5" y="-1084.3" font-family="Times,serif" font-size="14.00" fill="#000000">mainWindow</text>
<polyline fill="none" stroke="#000000" points="596.5,-1076.5 694.5,-1076.5 "/>
<text text-anchor="start" x="604.5" y="-1061.3" font-family="Times,serif" font-size="14.00" fill="#000000">exit()</text>
<text text-anchor="start" x="604.5" y="-1046.3" font-family="Times,serif" font-size="14.00" fill="#000000">start()</text>
</g>
<!-- 0&#45;&gt;3 -->
<g id="edge2" class="edge">
<title>0&#45;&gt;3</title>
<path fill="none" stroke="#000000" d="M801.4406,-513.3228C809.9613,-603.209 822.5752,-848.0038 731.5,-1020 724.6722,-1032.8943 714.6847,-1044.6038 703.9121,-1054.7471"/>
<polygon fill="#000000" stroke="#000000" points="703.7081,-1054.928 701.8736,-1061.9019 694.7306,-1062.8907 696.5651,-1055.9169 703.7081,-1054.928"/>
<text text-anchor="middle" x="839" y="-835.8" font-family="Times,serif" font-size="14.00" fill="#00ff00">aboutDialog</text>
</g>
<!-- 1&#45;&gt;3 -->
<g id="edge3" class="edge">
<title>1&#45;&gt;3</title>
<path fill="none" stroke="#000000" d="M645.5,-949.1811C645.5,-975.2986 645.5,-1002.4551 645.5,-1026.1793"/>
<polygon fill="#000000" stroke="#000000" points="645.5001,-1026.2491 649.5,-1032.2491 645.5,-1038.2491 641.5,-1032.249 645.5001,-1026.2491"/>
<text text-anchor="middle" x="686.5" y="-1008.8" font-family="Times,serif" font-size="14.00" fill="#00ff00">adminWindow</text>
</g>
<!-- 2 -->
<g id="node3" class="node">
<title>2</title>
<polygon fill="none" stroke="#000000" points="388.5,-414 388.5,-543 536.5,-543 536.5,-414 388.5,-414"/>
<text text-anchor="middle" x="462.5" y="-527.8" font-family="Times,serif" font-size="14.00" fill="#000000">ChangePasswordDialog</text>
<polyline fill="none" stroke="#000000" points="388.5,-520 536.5,-520 "/>
<text text-anchor="start" x="396.5" y="-504.8" font-family="Times,serif" font-size="14.00" fill="#000000">messageBox</text>
<text text-anchor="start" x="396.5" y="-489.8" font-family="Times,serif" font-size="14.00" fill="#000000">onPasswordChanged</text>
<text text-anchor="start" x="396.5" y="-474.8" font-family="Times,serif" font-size="14.00" fill="#000000">ui</text>
<polyline fill="none" stroke="#000000" points="388.5,-467 536.5,-467 "/>
<text text-anchor="start" x="396.5" y="-451.8" font-family="Times,serif" font-size="14.00" fill="#000000">changePassword()</text>
<text text-anchor="start" x="396.5" y="-436.8" font-family="Times,serif" font-size="14.00" fill="#000000">enter(account)</text>
<text text-anchor="start" x="396.5" y="-421.8" font-family="Times,serif" font-size="14.00" fill="#000000">passwordFits(password)</text>
</g>
<!-- 2&#45;&gt;1 -->
<g id="edge4" class="edge">
<title>2&#45;&gt;1</title>
<path fill="none" stroke="#000000" d="M472.8364,-543.3968C480.7452,-582.6427 493.8784,-632.8716 514.5,-674 528.2747,-701.4727 547.0837,-728.7074 566.1502,-752.9115"/>
<polygon fill="#000000" stroke="#000000" points="566.2384,-753.0216 573.1126,-755.2002 573.7454,-762.3835 566.8713,-760.2049 566.2384,-753.0216"/>
<text text-anchor="middle" x="578" y="-662.8" font-family="Times,serif" font-size="14.00" fill="#00ff00">changePasswordDialog</text>
</g>
<!-- 4 -->
<g id="node5" class="node">
<title>4</title>
<polygon fill="none" stroke="#000000" points="152,-692.5 152,-986.5 457,-986.5 457,-692.5 152,-692.5"/>
<text text-anchor="middle" x="304.5" y="-971.3" font-family="Times,serif" font-size="14.00" fill="#000000">MainWindow</text>
<polyline fill="none" stroke="#000000" points="152,-963.5 457,-963.5 "/>
<text text-anchor="start" x="160" y="-948.3" font-family="Times,serif" font-size="14.00" fill="#000000">changePasswordDialog</text>
<text text-anchor="start" x="160" y="-933.3" font-family="Times,serif" font-size="14.00" fill="#000000">leftAttempts : int</text>
<text text-anchor="start" x="160" y="-918.3" font-family="Times,serif" font-size="14.00" fill="#000000">messageBox</text>
<text text-anchor="start" x="160" y="-903.3" font-family="Times,serif" font-size="14.00" fill="#000000">noMoreAttempts</text>
<text text-anchor="start" x="160" y="-888.3" font-family="Times,serif" font-size="14.00" fill="#000000">onAdminEnter</text>
<text text-anchor="start" x="160" y="-873.3" font-family="Times,serif" font-size="14.00" fill="#000000">onUserEnter</text>
<text text-anchor="start" x="160" y="-858.3" font-family="Times,serif" font-size="14.00" fill="#000000">ui</text>
<text text-anchor="start" x="160" y="-843.3" font-family="Times,serif" font-size="14.00" fill="#000000">users</text>
<polyline fill="none" stroke="#000000" points="152,-835.5 457,-835.5 "/>
<text text-anchor="start" x="160" y="-820.3" font-family="Times,serif" font-size="14.00" fill="#000000">checkValidInput()</text>
<text text-anchor="start" x="160" y="-805.3" font-family="Times,serif" font-size="14.00" fill="#000000">closeEvent(a0)</text>
<text text-anchor="start" x="160" y="-790.3" font-family="Times,serif" font-size="14.00" fill="#000000">processNoAttemptsLeft()</text>
<text text-anchor="start" x="160" y="-775.3" font-family="Times,serif" font-size="14.00" fill="#000000">processNoLogin()</text>
<text text-anchor="start" x="160" y="-760.3" font-family="Times,serif" font-size="14.00" fill="#000000">processNoPassword(enteredLogin, enteredPassword)</text>
<text text-anchor="start" x="160" y="-745.3" font-family="Times,serif" font-size="14.00" fill="#000000">processValidInput(enteredLogin, enteredPassword)</text>
<text text-anchor="start" x="160" y="-730.3" font-family="Times,serif" font-size="14.00" fill="#000000">setCurrentUser(user)</text>
<text text-anchor="start" x="160" y="-715.3" font-family="Times,serif" font-size="14.00" fill="#000000">updateCurrentUser(user)</text>
<text text-anchor="start" x="160" y="-700.3" font-family="Times,serif" font-size="14.00" fill="#000000">updateUsers(users)</text>
</g>
<!-- 2&#45;&gt;4 -->
<g id="edge5" class="edge">
<title>2&#45;&gt;4</title>
<path fill="none" stroke="#000000" d="M439.9215,-543.3627C426.1213,-575.756 405.8129,-613.7439 378.5,-641 366.1183,-653.3559 354.1457,-645.1203 343.5,-659 338.2014,-665.9083 333.5881,-673.382 329.5743,-681.2235"/>
<polygon fill="#000000" stroke="#000000" points="329.5572,-681.2601 330.6327,-688.3906 324.4644,-692.1259 323.3889,-684.9954 329.5572,-681.2601"/>
<text text-anchor="middle" x="407" y="-662.8" font-family="Times,serif" font-size="14.00" fill="#00ff00">changePasswordDialog</text>
</g>
<!-- 4&#45;&gt;3 -->
<g id="edge6" class="edge">
<title>4&#45;&gt;3</title>
<path fill="none" stroke="#000000" d="M457.0472,-954.0222C502.9189,-988.4597 550.5434,-1024.213 586.4403,-1051.162"/>
<polygon fill="#000000" stroke="#000000" points="586.6463,-1051.3165 593.8461,-1051.7199 596.2429,-1058.5211 589.0431,-1058.1177 586.6463,-1051.3165"/>
<text text-anchor="middle" x="583.5" y="-1008.8" font-family="Times,serif" font-size="14.00" fill="#00ff00">mainWindow</text>
</g>
<!-- 5 -->
<g id="node6" class="node">
<title>5</title>
<polygon fill="none" stroke="#000000" points="555,-331.5 555,-625.5 736,-625.5 736,-331.5 555,-331.5"/>
<text text-anchor="middle" x="645.5" y="-610.3" font-family="Times,serif" font-size="14.00" fill="#000000">Ui_AdminWindow</text>
<polyline fill="none" stroke="#000000" points="555,-602.5 736,-602.5 "/>
<text text-anchor="start" x="563" y="-587.3" font-family="Times,serif" font-size="14.00" fill="#000000">actionAbout</text>
<text text-anchor="start" x="563" y="-572.3" font-family="Times,serif" font-size="14.00" fill="#000000">actionChange_password</text>
<text text-anchor="start" x="563" y="-557.3" font-family="Times,serif" font-size="14.00" fill="#000000">actionExit</text>
<text text-anchor="start" x="563" y="-542.3" font-family="Times,serif" font-size="14.00" fill="#000000">addNewUserButton</text>
<text text-anchor="start" x="563" y="-527.3" font-family="Times,serif" font-size="14.00" fill="#000000">centralwidget</text>
<text text-anchor="start" x="563" y="-512.3" font-family="Times,serif" font-size="14.00" fill="#000000">horizontalLayout</text>
<text text-anchor="start" x="563" y="-497.3" font-family="Times,serif" font-size="14.00" fill="#000000">menuFile</text>
<text text-anchor="start" x="563" y="-482.3" font-family="Times,serif" font-size="14.00" fill="#000000">menuHelp</text>
<text text-anchor="start" x="563" y="-467.3" font-family="Times,serif" font-size="14.00" fill="#000000">menubar</text>
<text text-anchor="start" x="563" y="-452.3" font-family="Times,serif" font-size="14.00" fill="#000000">newUserLoginEdit</text>
<text text-anchor="start" x="563" y="-437.3" font-family="Times,serif" font-size="14.00" fill="#000000">newUserLoginLabel</text>
<text text-anchor="start" x="563" y="-422.3" font-family="Times,serif" font-size="14.00" fill="#000000">statusbar</text>
<text text-anchor="start" x="563" y="-407.3" font-family="Times,serif" font-size="14.00" fill="#000000">usersTableWidget</text>
<text text-anchor="start" x="563" y="-392.3" font-family="Times,serif" font-size="14.00" fill="#000000">verticalLayout</text>
<text text-anchor="start" x="563" y="-377.3" font-family="Times,serif" font-size="14.00" fill="#000000">verticalLayout_2</text>
<polyline fill="none" stroke="#000000" points="555,-369.5 736,-369.5 "/>
<text text-anchor="start" x="563" y="-354.3" font-family="Times,serif" font-size="14.00" fill="#000000">retranslateUi(AdminWindow)</text>
<text text-anchor="start" x="563" y="-339.3" font-family="Times,serif" font-size="14.00" fill="#000000">setupUi(AdminWindow)</text>
</g>
<!-- 5&#45;&gt;1 -->
<g id="edge7" class="edge">
<title>5&#45;&gt;1</title>
<path fill="none" stroke="#000000" d="M645.5,-625.5928C645.5,-656.1984 645.5,-688.1318 645.5,-717.7057"/>
<polygon fill="#000000" stroke="#000000" points="645.5001,-717.7856 649.5,-723.7856 645.5,-729.7856 641.5,-723.7856 645.5001,-717.7856"/>
<text text-anchor="middle" x="651" y="-662.8" font-family="Times,serif" font-size="14.00" fill="#00ff00">ui</text>
</g>
<!-- 6 -->
<g id="node7" class="node">
<title>6</title>
<polygon fill="none" stroke="#000000" points="350,-.5 350,-264.5 575,-264.5 575,-.5 350,-.5"/>
<text text-anchor="middle" x="462.5" y="-249.3" font-family="Times,serif" font-size="14.00" fill="#000000">Ui_ChangePasswordDialog</text>
<polyline fill="none" stroke="#000000" points="350,-241.5 575,-241.5 "/>
<text text-anchor="start" x="358" y="-226.3" font-family="Times,serif" font-size="14.00" fill="#000000">buttonBox</text>
<text text-anchor="start" x="358" y="-211.3" font-family="Times,serif" font-size="14.00" fill="#000000">confirmNewPasswordEdit</text>
<text text-anchor="start" x="358" y="-196.3" font-family="Times,serif" font-size="14.00" fill="#000000">confirmNewPasswordLabel</text>
<text text-anchor="start" x="358" y="-181.3" font-family="Times,serif" font-size="14.00" fill="#000000">horizontalLayout</text>
<text text-anchor="start" x="358" y="-166.3" font-family="Times,serif" font-size="14.00" fill="#000000">horizontalLayout_2</text>
<text text-anchor="start" x="358" y="-151.3" font-family="Times,serif" font-size="14.00" fill="#000000">horizontalLayout_3</text>
<text text-anchor="start" x="358" y="-136.3" font-family="Times,serif" font-size="14.00" fill="#000000">newPasswordEdit</text>
<text text-anchor="start" x="358" y="-121.3" font-family="Times,serif" font-size="14.00" fill="#000000">newPasswordLabel</text>
<text text-anchor="start" x="358" y="-106.3" font-family="Times,serif" font-size="14.00" fill="#000000">oldPasswordEdit</text>
<text text-anchor="start" x="358" y="-91.3" font-family="Times,serif" font-size="14.00" fill="#000000">oldPasswordLabel</text>
<text text-anchor="start" x="358" y="-76.3" font-family="Times,serif" font-size="14.00" fill="#000000">verticalLayout</text>
<text text-anchor="start" x="358" y="-61.3" font-family="Times,serif" font-size="14.00" fill="#000000">verticalLayout_2</text>
<text text-anchor="start" x="358" y="-46.3" font-family="Times,serif" font-size="14.00" fill="#000000">verticalLayout_3</text>
<polyline fill="none" stroke="#000000" points="350,-38.5 575,-38.5 "/>
<text text-anchor="start" x="358" y="-23.3" font-family="Times,serif" font-size="14.00" fill="#000000">retranslateUi(ChangePasswordDialog)</text>
<text text-anchor="start" x="358" y="-8.3" font-family="Times,serif" font-size="14.00" fill="#000000">setupUi(ChangePasswordDialog)</text>
</g>
<!-- 6&#45;&gt;2 -->
<g id="edge8" class="edge">
<title>6&#45;&gt;2</title>
<path fill="none" stroke="#000000" d="M462.5,-264.7888C462.5,-311.1234 462.5,-361.5888 462.5,-401.8396"/>
<polygon fill="#000000" stroke="#000000" points="462.5001,-401.9874 466.5,-407.9874 462.5,-413.9874 458.5,-407.9874 462.5001,-401.9874"/>
<text text-anchor="middle" x="468" y="-286.8" font-family="Times,serif" font-size="14.00" fill="#00ff00">ui</text>
</g>
<!-- 7 -->
<g id="node8" class="node">
<title>7</title>
<polygon fill="none" stroke="#000000" points="0,-316.5 0,-640.5 175,-640.5 175,-316.5 0,-316.5"/>
<text text-anchor="middle" x="87.5" y="-625.3" font-family="Times,serif" font-size="14.00" fill="#000000">Ui_LoginWindow</text>
<polyline fill="none" stroke="#000000" points="0,-617.5 175,-617.5 "/>
<text text-anchor="start" x="8" y="-602.3" font-family="Times,serif" font-size="14.00" fill="#000000">actionAbout</text>
<text text-anchor="start" x="8" y="-587.3" font-family="Times,serif" font-size="14.00" fill="#000000">actionExit</text>
<text text-anchor="start" x="8" y="-572.3" font-family="Times,serif" font-size="14.00" fill="#000000">buttonBox</text>
<text text-anchor="start" x="8" y="-557.3" font-family="Times,serif" font-size="14.00" fill="#000000">centralwidget</text>
<text text-anchor="start" x="8" y="-542.3" font-family="Times,serif" font-size="14.00" fill="#000000">horizontalLayout</text>
<text text-anchor="start" x="8" y="-527.3" font-family="Times,serif" font-size="14.00" fill="#000000">horizontalLayout_2</text>
<text text-anchor="start" x="8" y="-512.3" font-family="Times,serif" font-size="14.00" fill="#000000">loginEdit</text>
<text text-anchor="start" x="8" y="-497.3" font-family="Times,serif" font-size="14.00" fill="#000000">loginLabel</text>
<text text-anchor="start" x="8" y="-482.3" font-family="Times,serif" font-size="14.00" fill="#000000">menuFile</text>
<text text-anchor="start" x="8" y="-467.3" font-family="Times,serif" font-size="14.00" fill="#000000">menuHelp</text>
<text text-anchor="start" x="8" y="-452.3" font-family="Times,serif" font-size="14.00" fill="#000000">menubar</text>
<text text-anchor="start" x="8" y="-437.3" font-family="Times,serif" font-size="14.00" fill="#000000">passwordEdit</text>
<text text-anchor="start" x="8" y="-422.3" font-family="Times,serif" font-size="14.00" fill="#000000">passwordLabel</text>
<text text-anchor="start" x="8" y="-407.3" font-family="Times,serif" font-size="14.00" fill="#000000">statusbar</text>
<text text-anchor="start" x="8" y="-392.3" font-family="Times,serif" font-size="14.00" fill="#000000">verticalLayout</text>
<text text-anchor="start" x="8" y="-377.3" font-family="Times,serif" font-size="14.00" fill="#000000">verticalLayout_2</text>
<text text-anchor="start" x="8" y="-362.3" font-family="Times,serif" font-size="14.00" fill="#000000">verticalLayout_3</text>
<polyline fill="none" stroke="#000000" points="0,-354.5 175,-354.5 "/>
<text text-anchor="start" x="8" y="-339.3" font-family="Times,serif" font-size="14.00" fill="#000000">retranslateUi(LoginWindow)</text>
<text text-anchor="start" x="8" y="-324.3" font-family="Times,serif" font-size="14.00" fill="#000000">setupUi(LoginWindow)</text>
</g>
<!-- 7&#45;&gt;4 -->
<g id="edge9" class="edge">
<title>7&#45;&gt;4</title>
<path fill="none" stroke="#000000" d="M175.0499,-626.8893C177.8956,-631.6509 180.7179,-636.3642 183.5,-641 191.4852,-654.3058 199.8013,-668.0925 208.1687,-681.9154"/>
<polygon fill="#000000" stroke="#000000" points="208.3546,-682.2222 214.8848,-685.2812 214.5727,-692.4855 208.0425,-689.4266 208.3546,-682.2222"/>
<text text-anchor="middle" x="209" y="-662.8" font-family="Times,serif" font-size="14.00" fill="#00ff00">ui</text>
</g>
<!-- 8 -->
<g id="node9" class="node">
<title>8</title>
<polygon fill="none" stroke="#000000" points="716.5,-68 716.5,-197 878.5,-197 878.5,-68 716.5,-68"/>
<text text-anchor="middle" x="797.5" y="-181.8" font-family="Times,serif" font-size="14.00" fill="#000000">Ui_aboutDialog</text>
<polyline fill="none" stroke="#000000" points="716.5,-174 878.5,-174 "/>
<text text-anchor="start" x="724.5" y="-158.8" font-family="Times,serif" font-size="14.00" fill="#000000">authorLabel</text>
<text text-anchor="start" x="724.5" y="-143.8" font-family="Times,serif" font-size="14.00" fill="#000000">line</text>
<text text-anchor="start" x="724.5" y="-128.8" font-family="Times,serif" font-size="14.00" fill="#000000">taskLabel</text>
<text text-anchor="start" x="724.5" y="-113.8" font-family="Times,serif" font-size="14.00" fill="#000000">verticalLayout</text>
<polyline fill="none" stroke="#000000" points="716.5,-106 878.5,-106 "/>
<text text-anchor="start" x="724.5" y="-90.8" font-family="Times,serif" font-size="14.00" fill="#000000">retranslateUi(aboutDialog)</text>
<text text-anchor="start" x="724.5" y="-75.8" font-family="Times,serif" font-size="14.00" fill="#000000">setupUi(aboutDialog)</text>
</g>
<!-- 8&#45;&gt;0 -->
<g id="edge10" class="edge">
<title>8&#45;&gt;0</title>
<path fill="none" stroke="#000000" d="M797.5,-197.1741C797.5,-265.2864 797.5,-370.885 797.5,-431.4703"/>
<polygon fill="#000000" stroke="#000000" points="797.5001,-431.6856 801.5,-437.6857 797.5,-443.6856 793.5,-437.6856 797.5001,-431.6856"/>
<text text-anchor="middle" x="803" y="-286.8" font-family="Times,serif" font-size="14.00" fill="#00ff00">ui</text>
</g>
<!-- 9 -->
<g id="node10" class="node">
<title>9</title>
<polygon fill="none" stroke="#000000" points="193,-406 193,-551 370,-551 370,-406 193,-406"/>
<text text-anchor="middle" x="281.5" y="-535.8" font-family="Times,serif" font-size="14.00" fill="#000000">Users</text>
<polyline fill="none" stroke="#000000" points="193,-528 370,-528 "/>
<polyline fill="none" stroke="#000000" points="193,-504 370,-504 "/>
<text text-anchor="start" x="201" y="-488.8" font-family="Times,serif" font-size="14.00" fill="#000000">addAccount(acc)</text>
<text text-anchor="start" x="201" y="-473.8" font-family="Times,serif" font-size="14.00" fill="#000000">addAccountByLogin(login)</text>
<text text-anchor="start" x="201" y="-458.8" font-family="Times,serif" font-size="14.00" fill="#000000">getAccount(login, password)</text>
<text text-anchor="start" x="201" y="-443.8" font-family="Times,serif" font-size="14.00" fill="#000000">hasAccountWithLogin(login)</text>
<text text-anchor="start" x="201" y="-428.8" font-family="Times,serif" font-size="14.00" fill="#000000">save()</text>
<text text-anchor="start" x="201" y="-413.8" font-family="Times,serif" font-size="14.00" fill="#000000">updateAccount(old, new)</text>
</g>
<!-- 9&#45;&gt;4 -->
<g id="edge11" class="edge">
<title>9&#45;&gt;4</title>
<path fill="none" stroke="#000000" d="M281.9335,-551.4449C282.5158,-588.2306 283.7856,-633.5182 286.5,-674 286.6396,-676.0817 286.7856,-678.1776 286.9376,-680.2852"/>
<polygon fill="#000000" stroke="#000000" points="286.9541,-680.5025 291.4004,-686.1797 287.87,-692.4675 283.4237,-686.7903 286.9541,-680.5025"/>
<text text-anchor="middle" x="300.5" y="-662.8" font-family="Times,serif" font-size="14.00" fill="#00ff00">users</text>
</g>
</g>
</svg>
