<?xml version="1.0" encoding="UTF-8" standalone="no"?>
<!DOCTYPE svg PUBLIC "-//W3C//DTD SVG 1.1//EN"
 "http://www.w3.org/Graphics/SVG/1.1/DTD/svg11.dtd">
<!-- Generated by graphviz version 2.40.1 (20161225.0304)
 -->
<!-- Title: classes Pages: 1 -->
<svg width="1194pt" height="1358pt"
 viewBox="0.00 0.00 1193.50 1358.00" xmlns="http://www.w3.org/2000/svg" xmlns:xlink="http://www.w3.org/1999/xlink">
<g id="graph0" class="graph" transform="scale(1 1) rotate(0) translate(4 1354)">
<title>classes</title>
<polygon fill="#ffffff" stroke="transparent" points="-4,4 -4,-1354 1189.5,-1354 1189.5,4 -4,4"/>
<!-- 0 -->
<g id="node1" class="node">
<title>0</title>
<polygon fill="none" stroke="#000000" points="36.5,-.5 36.5,-70.5 115.5,-70.5 115.5,-.5 36.5,-.5"/>
<text text-anchor="middle" x="76" y="-55.3" font-family="Times,serif" font-size="14.00" fill="#000000">AESCipher</text>
<polyline fill="none" stroke="#000000" points="36.5,-47.5 115.5,-47.5 "/>
<polyline fill="none" stroke="#000000" points="36.5,-23.5 115.5,-23.5 "/>
<text text-anchor="middle" x="76" y="-8.3" font-family="Times,serif" font-size="14.00" fill="#000000"> </text>
</g>
<!-- 3 -->
<g id="node4" class="node">
<title>3</title>
<polygon fill="none" stroke="#000000" points="0,-197.5 0,-311.5 120,-311.5 120,-197.5 0,-197.5"/>
<text text-anchor="middle" x="60" y="-296.3" font-family="Times,serif" font-size="14.00" fill="#000000">BlockAlgo</text>
<polyline fill="none" stroke="#000000" points="0,-288.5 120,-288.5 "/>
<text text-anchor="start" x="8" y="-273.3" font-family="Times,serif" font-size="14.00" fill="#000000">IV</text>
<text text-anchor="start" x="8" y="-258.3" font-family="Times,serif" font-size="14.00" fill="#000000">block_size</text>
<text text-anchor="start" x="8" y="-243.3" font-family="Times,serif" font-size="14.00" fill="#000000">mode</text>
<polyline fill="none" stroke="#000000" points="0,-235.5 120,-235.5 "/>
<text text-anchor="start" x="8" y="-220.3" font-family="Times,serif" font-size="14.00" fill="#000000">decrypt(ciphertext)</text>
<text text-anchor="start" x="8" y="-205.3" font-family="Times,serif" font-size="14.00" fill="#000000">encrypt(plaintext)</text>
</g>
<!-- 0&#45;&gt;3 -->
<g id="edge1" class="edge">
<title>0&#45;&gt;3</title>
<path fill="none" stroke="#000000" d="M73.4293,-70.6861C71.1426,-101.9859 67.7352,-148.624 64.925,-187.089"/>
<polygon fill="none" stroke="#000000" points="61.4252,-186.9598 64.1872,-197.1883 68.4066,-187.47 61.4252,-186.9598"/>
</g>
<!-- 14 -->
<g id="node15" class="node">
<title>14</title>
<polygon fill="none" stroke="#000000" points="138.5,-212.5 138.5,-296.5 285.5,-296.5 285.5,-212.5 138.5,-212.5"/>
<text text-anchor="middle" x="212" y="-281.3" font-family="Times,serif" font-size="14.00" fill="#000000">UsersDataReaderWriter</text>
<polyline fill="none" stroke="#000000" points="138.5,-273.5 285.5,-273.5 "/>
<text text-anchor="start" x="146.5" y="-258.3" font-family="Times,serif" font-size="14.00" fill="#000000">cipher</text>
<polyline fill="none" stroke="#000000" points="138.5,-250.5 285.5,-250.5 "/>
<text text-anchor="start" x="146.5" y="-235.3" font-family="Times,serif" font-size="14.00" fill="#000000">readData()</text>
<text text-anchor="start" x="146.5" y="-220.3" font-family="Times,serif" font-size="14.00" fill="#000000">writeData(data)</text>
</g>
<!-- 0&#45;&gt;14 -->
<g id="edge2" class="edge">
<title>0&#45;&gt;14</title>
<path fill="none" stroke="#000000" d="M97.8508,-70.6861C119.8851,-106.168 154.16,-161.3606 179.4056,-202.0134"/>
<polygon fill="#000000" stroke="#000000" points="179.4484,-202.0824 186.0118,-205.0693 185.7791,-212.2766 179.2156,-209.2897 179.4484,-202.0824"/>
<text text-anchor="middle" x="134" y="-92.8" font-family="Times,serif" font-size="14.00" fill="#00ff00">cipher</text>
</g>
<!-- 1 -->
<g id="node2" class="node">
<title>1</title>
<polygon fill="none" stroke="#000000" points="877.5,-566 877.5,-635 964.5,-635 964.5,-566 877.5,-566"/>
<text text-anchor="middle" x="921" y="-619.8" font-family="Times,serif" font-size="14.00" fill="#000000">AboutDialog</text>
<polyline fill="none" stroke="#000000" points="877.5,-612 964.5,-612 "/>
<text text-anchor="start" x="885.5" y="-596.8" font-family="Times,serif" font-size="14.00" fill="#000000">ui</text>
<polyline fill="none" stroke="#000000" points="877.5,-589 964.5,-589 "/>
<text text-anchor="middle" x="921" y="-573.8" font-family="Times,serif" font-size="14.00" fill="#000000"> </text>
</g>
<!-- 2 -->
<g id="node3" class="node">
<title>2</title>
<polygon fill="none" stroke="#000000" points="715.5,-867 715.5,-1086 858.5,-1086 858.5,-867 715.5,-867"/>
<text text-anchor="middle" x="787" y="-1070.8" font-family="Times,serif" font-size="14.00" fill="#000000">AdminWindow</text>
<polyline fill="none" stroke="#000000" points="715.5,-1063 858.5,-1063 "/>
<text text-anchor="start" x="723.5" y="-1047.8" font-family="Times,serif" font-size="14.00" fill="#000000">aboutDialog</text>
<text text-anchor="start" x="723.5" y="-1032.8" font-family="Times,serif" font-size="14.00" fill="#000000">changePasswordDialog</text>
<text text-anchor="start" x="723.5" y="-1017.8" font-family="Times,serif" font-size="14.00" fill="#000000">messageBox</text>
<text text-anchor="start" x="723.5" y="-1002.8" font-family="Times,serif" font-size="14.00" fill="#000000">onExit</text>
<text text-anchor="start" x="723.5" y="-987.8" font-family="Times,serif" font-size="14.00" fill="#000000">ui</text>
<polyline fill="none" stroke="#000000" points="715.5,-980 858.5,-980 "/>
<text text-anchor="start" x="723.5" y="-964.8" font-family="Times,serif" font-size="14.00" fill="#000000">addNewUser()</text>
<text text-anchor="start" x="723.5" y="-949.8" font-family="Times,serif" font-size="14.00" fill="#000000">changePassword()</text>
<text text-anchor="start" x="723.5" y="-934.8" font-family="Times,serif" font-size="14.00" fill="#000000">closeAdmin()</text>
<text text-anchor="start" x="723.5" y="-919.8" font-family="Times,serif" font-size="14.00" fill="#000000">enter(admin, users)</text>
<text text-anchor="start" x="723.5" y="-904.8" font-family="Times,serif" font-size="14.00" fill="#000000">setAdmin(admin)</text>
<text text-anchor="start" x="723.5" y="-889.8" font-family="Times,serif" font-size="14.00" fill="#000000">tableInput(item)</text>
<text text-anchor="start" x="723.5" y="-874.8" font-family="Times,serif" font-size="14.00" fill="#000000">updateTable()</text>
</g>
<!-- 1&#45;&gt;2 -->
<g id="edge3" class="edge">
<title>1&#45;&gt;2</title>
<path fill="none" stroke="#000000" d="M917.9452,-635.2026C913.1118,-671.0687 900.705,-726.7827 869,-763 856.6907,-777.0612 842.6765,-766.4091 831,-781 814.0529,-802.177 803.3472,-828.5873 796.6531,-855.0793"/>
<polygon fill="#000000" stroke="#000000" points="796.6398,-855.1372 799.186,-861.8838 793.9376,-866.829 791.3914,-860.0823 796.6398,-855.1372"/>
<text text-anchor="middle" x="864.5" y="-784.8" font-family="Times,serif" font-size="14.00" fill="#00ff00">aboutDialog</text>
</g>
<!-- 6 -->
<g id="node7" class="node">
<title>6</title>
<polygon fill="none" stroke="#000000" points="792.5,-1190.5 792.5,-1349.5 917.5,-1349.5 917.5,-1190.5 792.5,-1190.5"/>
<text text-anchor="middle" x="855" y="-1334.3" font-family="Times,serif" font-size="14.00" fill="#000000">MainApp</text>
<polyline fill="none" stroke="#000000" points="792.5,-1326.5 917.5,-1326.5 "/>
<text text-anchor="start" x="800.5" y="-1311.3" font-family="Times,serif" font-size="14.00" fill="#000000">aboutDialog</text>
<text text-anchor="start" x="800.5" y="-1296.3" font-family="Times,serif" font-size="14.00" fill="#000000">adminWindow</text>
<text text-anchor="start" x="800.5" y="-1281.3" font-family="Times,serif" font-size="14.00" fill="#000000">decryptUsersDialog</text>
<text text-anchor="start" x="800.5" y="-1266.3" font-family="Times,serif" font-size="14.00" fill="#000000">mainWindow</text>
<text text-anchor="start" x="800.5" y="-1251.3" font-family="Times,serif" font-size="14.00" fill="#000000">messageBox</text>
<polyline fill="none" stroke="#000000" points="792.5,-1243.5 917.5,-1243.5 "/>
<text text-anchor="start" x="800.5" y="-1228.3" font-family="Times,serif" font-size="14.00" fill="#000000">exit()</text>
<text text-anchor="start" x="800.5" y="-1213.3" font-family="Times,serif" font-size="14.00" fill="#000000">loadUsers(k)</text>
<text text-anchor="start" x="800.5" y="-1198.3" font-family="Times,serif" font-size="14.00" fill="#000000">start()</text>
</g>
<!-- 1&#45;&gt;6 -->
<g id="edge4" class="edge">
<title>1&#45;&gt;6</title>
<path fill="none" stroke="#000000" d="M924.0259,-635.2317C930.9279,-725.2902 943.8953,-973.1686 898,-1172 897.4969,-1174.1795 896.9461,-1176.3708 896.353,-1178.5678"/>
<polygon fill="#000000" stroke="#000000" points="896.2687,-1178.8481 898.3704,-1185.7462 892.8112,-1190.3392 890.7096,-1183.4412 896.2687,-1178.8481"/>
<text text-anchor="middle" x="964.5" y="-972.8" font-family="Times,serif" font-size="14.00" fill="#00ff00">aboutDialog</text>
</g>
<!-- 2&#45;&gt;6 -->
<g id="edge5" class="edge">
<title>2&#45;&gt;6</title>
<path fill="none" stroke="#000000" d="M798.726,-1086.2537C802.9785,-1114.4636 808.6182,-1144.5829 816,-1172 816.607,-1174.2545 817.2503,-1176.5274 817.9247,-1178.8115"/>
<polygon fill="#000000" stroke="#000000" points="817.9342,-1178.842 823.5494,-1183.3664 821.5328,-1190.2898 815.9176,-1185.7654 817.9342,-1178.842"/>
<text text-anchor="middle" x="857" y="-1160.8" font-family="Times,serif" font-size="14.00" fill="#00ff00">adminWindow</text>
</g>
<!-- 4 -->
<g id="node5" class="node">
<title>4</title>
<polygon fill="none" stroke="#000000" points="512,-536 512,-665 660,-665 660,-536 512,-536"/>
<text text-anchor="middle" x="586" y="-649.8" font-family="Times,serif" font-size="14.00" fill="#000000">ChangePasswordDialog</text>
<polyline fill="none" stroke="#000000" points="512,-642 660,-642 "/>
<text text-anchor="start" x="520" y="-626.8" font-family="Times,serif" font-size="14.00" fill="#000000">messageBox</text>
<text text-anchor="start" x="520" y="-611.8" font-family="Times,serif" font-size="14.00" fill="#000000">onPasswordChanged</text>
<text text-anchor="start" x="520" y="-596.8" font-family="Times,serif" font-size="14.00" fill="#000000">ui</text>
<polyline fill="none" stroke="#000000" points="512,-589 660,-589 "/>
<text text-anchor="start" x="520" y="-573.8" font-family="Times,serif" font-size="14.00" fill="#000000">changePassword()</text>
<text text-anchor="start" x="520" y="-558.8" font-family="Times,serif" font-size="14.00" fill="#000000">enter(account)</text>
<text text-anchor="start" x="520" y="-543.8" font-family="Times,serif" font-size="14.00" fill="#000000">passwordFits(password)</text>
</g>
<!-- 4&#45;&gt;2 -->
<g id="edge6" class="edge">
<title>4&#45;&gt;2</title>
<path fill="none" stroke="#000000" d="M600.0124,-665.281C609.9794,-704.4846 625.4475,-754.7097 647,-796 663.4976,-827.6061 685.6734,-859.2735 707.5047,-887.0614"/>
<polygon fill="#000000" stroke="#000000" points="707.7243,-887.337 714.5917,-889.5368 715.2025,-896.722 708.3351,-894.5222 707.7243,-887.337"/>
<text text-anchor="middle" x="710.5" y="-784.8" font-family="Times,serif" font-size="14.00" fill="#00ff00">changePasswordDialog</text>
</g>
<!-- 7 -->
<g id="node8" class="node">
<title>7</title>
<polygon fill="none" stroke="#000000" points="264.5,-814.5 264.5,-1138.5 569.5,-1138.5 569.5,-814.5 264.5,-814.5"/>
<text text-anchor="middle" x="417" y="-1123.3" font-family="Times,serif" font-size="14.00" fill="#000000">MainWindow</text>
<polyline fill="none" stroke="#000000" points="264.5,-1115.5 569.5,-1115.5 "/>
<text text-anchor="start" x="272.5" y="-1100.3" font-family="Times,serif" font-size="14.00" fill="#000000">changePasswordDialog</text>
<text text-anchor="start" x="272.5" y="-1085.3" font-family="Times,serif" font-size="14.00" fill="#000000">leftAttempts : int</text>
<text text-anchor="start" x="272.5" y="-1070.3" font-family="Times,serif" font-size="14.00" fill="#000000">messageBox</text>
<text text-anchor="start" x="272.5" y="-1055.3" font-family="Times,serif" font-size="14.00" fill="#000000">noMoreAttempts</text>
<text text-anchor="start" x="272.5" y="-1040.3" font-family="Times,serif" font-size="14.00" fill="#000000">onAdminEnter</text>
<text text-anchor="start" x="272.5" y="-1025.3" font-family="Times,serif" font-size="14.00" fill="#000000">onUserEnter</text>
<text text-anchor="start" x="272.5" y="-1010.3" font-family="Times,serif" font-size="14.00" fill="#000000">ui</text>
<text text-anchor="start" x="272.5" y="-995.3" font-family="Times,serif" font-size="14.00" fill="#000000">users</text>
<text text-anchor="start" x="272.5" y="-980.3" font-family="Times,serif" font-size="14.00" fill="#000000">users : NoneType</text>
<polyline fill="none" stroke="#000000" points="264.5,-972.5 569.5,-972.5 "/>
<text text-anchor="start" x="272.5" y="-957.3" font-family="Times,serif" font-size="14.00" fill="#000000">checkValidInput()</text>
<text text-anchor="start" x="272.5" y="-942.3" font-family="Times,serif" font-size="14.00" fill="#000000">closeEvent(a0)</text>
<text text-anchor="start" x="272.5" y="-927.3" font-family="Times,serif" font-size="14.00" fill="#000000">loadUsers(k)</text>
<text text-anchor="start" x="272.5" y="-912.3" font-family="Times,serif" font-size="14.00" fill="#000000">processNoAttemptsLeft()</text>
<text text-anchor="start" x="272.5" y="-897.3" font-family="Times,serif" font-size="14.00" fill="#000000">processNoLogin()</text>
<text text-anchor="start" x="272.5" y="-882.3" font-family="Times,serif" font-size="14.00" fill="#000000">processNoPassword(enteredLogin, enteredPassword)</text>
<text text-anchor="start" x="272.5" y="-867.3" font-family="Times,serif" font-size="14.00" fill="#000000">processValidInput(enteredLogin, enteredPassword)</text>
<text text-anchor="start" x="272.5" y="-852.3" font-family="Times,serif" font-size="14.00" fill="#000000">setCurrentUser(user)</text>
<text text-anchor="start" x="272.5" y="-837.3" font-family="Times,serif" font-size="14.00" fill="#000000">updateCurrentUser(user)</text>
<text text-anchor="start" x="272.5" y="-822.3" font-family="Times,serif" font-size="14.00" fill="#000000">updateUsers(users)</text>
</g>
<!-- 4&#45;&gt;7 -->
<g id="edge7" class="edge">
<title>4&#45;&gt;7</title>
<path fill="none" stroke="#000000" d="M564.7595,-665.1561C551.3222,-697.8869 531.1093,-736.2453 503,-763 488.879,-776.4405 475.4019,-765.9587 463,-781 457.2163,-788.0146 452.1336,-795.6284 447.669,-803.6465"/>
<polygon fill="#000000" stroke="#000000" points="447.6276,-803.7274 448.4471,-810.8918 442.149,-814.4038 441.3295,-807.2394 447.6276,-803.7274"/>
<text text-anchor="middle" x="526.5" y="-784.8" font-family="Times,serif" font-size="14.00" fill="#00ff00">changePasswordDialog</text>
</g>
<!-- 5 -->
<g id="node6" class="node">
<title>5</title>
<polygon fill="none" stroke="#000000" points="1008,-934.5 1008,-1018.5 1136,-1018.5 1136,-934.5 1008,-934.5"/>
<text text-anchor="middle" x="1072" y="-1003.3" font-family="Times,serif" font-size="14.00" fill="#000000">DecryptUsersDialog</text>
<polyline fill="none" stroke="#000000" points="1008,-995.5 1136,-995.5 "/>
<text text-anchor="start" x="1016" y="-980.3" font-family="Times,serif" font-size="14.00" fill="#000000">onPasswordEntered</text>
<text text-anchor="start" x="1016" y="-965.3" font-family="Times,serif" font-size="14.00" fill="#000000">ui</text>
<polyline fill="none" stroke="#000000" points="1008,-957.5 1136,-957.5 "/>
<text text-anchor="start" x="1016" y="-942.3" font-family="Times,serif" font-size="14.00" fill="#000000">entered()</text>
</g>
<!-- 5&#45;&gt;6 -->
<g id="edge8" class="edge">
<title>5&#45;&gt;6</title>
<path fill="none" stroke="#000000" d="M1052.8066,-1018.7801C1036.4805,-1052.7351 1011.2364,-1100.8724 983,-1139 966.2682,-1161.593 945.8255,-1184.206 926.2311,-1204.1303"/>
<polygon fill="#000000" stroke="#000000" points="926.0726,-1204.2895 924.6713,-1211.3631 917.6028,-1212.7902 919.0041,-1205.7166 926.0726,-1204.2895"/>
<text text-anchor="middle" x="1021.5" y="-1160.8" font-family="Times,serif" font-size="14.00" fill="#00ff00">decryptUsersDialog</text>
</g>
<!-- 7&#45;&gt;6 -->
<g id="edge9" class="edge">
<title>7&#45;&gt;6</title>
<path fill="none" stroke="#000000" d="M569.5763,-1078.74C641.6599,-1127.0427 724.3483,-1182.4514 782.1059,-1221.1543"/>
<polygon fill="#000000" stroke="#000000" points="782.2633,-1221.2597 789.4744,-1221.2768 792.2321,-1227.9398 785.021,-1227.9227 782.2633,-1221.2597"/>
<text text-anchor="middle" x="738" y="-1160.8" font-family="Times,serif" font-size="14.00" fill="#00ff00">mainWindow</text>
</g>
<!-- 8 -->
<g id="node9" class="node">
<title>8</title>
<polygon fill="none" stroke="#000000" points="678.5,-453.5 678.5,-747.5 859.5,-747.5 859.5,-453.5 678.5,-453.5"/>
<text text-anchor="middle" x="769" y="-732.3" font-family="Times,serif" font-size="14.00" fill="#000000">Ui_AdminWindow</text>
<polyline fill="none" stroke="#000000" points="678.5,-724.5 859.5,-724.5 "/>
<text text-anchor="start" x="686.5" y="-709.3" font-family="Times,serif" font-size="14.00" fill="#000000">actionAbout</text>
<text text-anchor="start" x="686.5" y="-694.3" font-family="Times,serif" font-size="14.00" fill="#000000">actionChange_password</text>
<text text-anchor="start" x="686.5" y="-679.3" font-family="Times,serif" font-size="14.00" fill="#000000">actionExit</text>
<text text-anchor="start" x="686.5" y="-664.3" font-family="Times,serif" font-size="14.00" fill="#000000">addNewUserButton</text>
<text text-anchor="start" x="686.5" y="-649.3" font-family="Times,serif" font-size="14.00" fill="#000000">centralwidget</text>
<text text-anchor="start" x="686.5" y="-634.3" font-family="Times,serif" font-size="14.00" fill="#000000">horizontalLayout</text>
<text text-anchor="start" x="686.5" y="-619.3" font-family="Times,serif" font-size="14.00" fill="#000000">menuFile</text>
<text text-anchor="start" x="686.5" y="-604.3" font-family="Times,serif" font-size="14.00" fill="#000000">menuHelp</text>
<text text-anchor="start" x="686.5" y="-589.3" font-family="Times,serif" font-size="14.00" fill="#000000">menubar</text>
<text text-anchor="start" x="686.5" y="-574.3" font-family="Times,serif" font-size="14.00" fill="#000000">newUserLoginEdit</text>
<text text-anchor="start" x="686.5" y="-559.3" font-family="Times,serif" font-size="14.00" fill="#000000">newUserLoginLabel</text>
<text text-anchor="start" x="686.5" y="-544.3" font-family="Times,serif" font-size="14.00" fill="#000000">statusbar</text>
<text text-anchor="start" x="686.5" y="-529.3" font-family="Times,serif" font-size="14.00" fill="#000000">usersTableWidget</text>
<text text-anchor="start" x="686.5" y="-514.3" font-family="Times,serif" font-size="14.00" fill="#000000">verticalLayout</text>
<text text-anchor="start" x="686.5" y="-499.3" font-family="Times,serif" font-size="14.00" fill="#000000">verticalLayout_2</text>
<polyline fill="none" stroke="#000000" points="678.5,-491.5 859.5,-491.5 "/>
<text text-anchor="start" x="686.5" y="-476.3" font-family="Times,serif" font-size="14.00" fill="#000000">retranslateUi(AdminWindow)</text>
<text text-anchor="start" x="686.5" y="-461.3" font-family="Times,serif" font-size="14.00" fill="#000000">setupUi(AdminWindow)</text>
</g>
<!-- 8&#45;&gt;2 -->
<g id="edge10" class="edge">
<title>8&#45;&gt;2</title>
<path fill="none" stroke="#000000" d="M776.0495,-747.7564C777.7391,-783.0493 779.525,-820.3547 781.1532,-854.3674"/>
<polygon fill="#000000" stroke="#000000" points="781.1716,-854.7534 785.454,-860.5552 781.7455,-866.7397 777.4631,-860.9378 781.1716,-854.7534"/>
<text text-anchor="middle" x="783.5" y="-784.8" font-family="Times,serif" font-size="14.00" fill="#00ff00">ui</text>
</g>
<!-- 9 -->
<g id="node10" class="node">
<title>9</title>
<polygon fill="none" stroke="#000000" points="473.5,-122.5 473.5,-386.5 698.5,-386.5 698.5,-122.5 473.5,-122.5"/>
<text text-anchor="middle" x="586" y="-371.3" font-family="Times,serif" font-size="14.00" fill="#000000">Ui_ChangePasswordDialog</text>
<polyline fill="none" stroke="#000000" points="473.5,-363.5 698.5,-363.5 "/>
<text text-anchor="start" x="481.5" y="-348.3" font-family="Times,serif" font-size="14.00" fill="#000000">buttonBox</text>
<text text-anchor="start" x="481.5" y="-333.3" font-family="Times,serif" font-size="14.00" fill="#000000">confirmNewPasswordEdit</text>
<text text-anchor="start" x="481.5" y="-318.3" font-family="Times,serif" font-size="14.00" fill="#000000">confirmNewPasswordLabel</text>
<text text-anchor="start" x="481.5" y="-303.3" font-family="Times,serif" font-size="14.00" fill="#000000">horizontalLayout</text>
<text text-anchor="start" x="481.5" y="-288.3" font-family="Times,serif" font-size="14.00" fill="#000000">horizontalLayout_2</text>
<text text-anchor="start" x="481.5" y="-273.3" font-family="Times,serif" font-size="14.00" fill="#000000">horizontalLayout_3</text>
<text text-anchor="start" x="481.5" y="-258.3" font-family="Times,serif" font-size="14.00" fill="#000000">newPasswordEdit</text>
<text text-anchor="start" x="481.5" y="-243.3" font-family="Times,serif" font-size="14.00" fill="#000000">newPasswordLabel</text>
<text text-anchor="start" x="481.5" y="-228.3" font-family="Times,serif" font-size="14.00" fill="#000000">oldPasswordEdit</text>
<text text-anchor="start" x="481.5" y="-213.3" font-family="Times,serif" font-size="14.00" fill="#000000">oldPasswordLabel</text>
<text text-anchor="start" x="481.5" y="-198.3" font-family="Times,serif" font-size="14.00" fill="#000000">verticalLayout</text>
<text text-anchor="start" x="481.5" y="-183.3" font-family="Times,serif" font-size="14.00" fill="#000000">verticalLayout_2</text>
<text text-anchor="start" x="481.5" y="-168.3" font-family="Times,serif" font-size="14.00" fill="#000000">verticalLayout_3</text>
<polyline fill="none" stroke="#000000" points="473.5,-160.5 698.5,-160.5 "/>
<text text-anchor="start" x="481.5" y="-145.3" font-family="Times,serif" font-size="14.00" fill="#000000">retranslateUi(ChangePasswordDialog)</text>
<text text-anchor="start" x="481.5" y="-130.3" font-family="Times,serif" font-size="14.00" fill="#000000">setupUi(ChangePasswordDialog)</text>
</g>
<!-- 9&#45;&gt;4 -->
<g id="edge11" class="edge">
<title>9&#45;&gt;4</title>
<path fill="none" stroke="#000000" d="M586,-386.7888C586,-433.1234 586,-483.5888 586,-523.8396"/>
<polygon fill="#000000" stroke="#000000" points="586.0001,-523.9874 590,-529.9874 586,-535.9874 582,-529.9874 586.0001,-523.9874"/>
<text text-anchor="middle" x="591.5" y="-408.8" font-family="Times,serif" font-size="14.00" fill="#00ff00">ui</text>
</g>
<!-- 10 -->
<g id="node11" class="node">
<title>10</title>
<polygon fill="none" stroke="#000000" points="318.5,-438.5 318.5,-762.5 493.5,-762.5 493.5,-438.5 318.5,-438.5"/>
<text text-anchor="middle" x="406" y="-747.3" font-family="Times,serif" font-size="14.00" fill="#000000">Ui_LoginWindow</text>
<polyline fill="none" stroke="#000000" points="318.5,-739.5 493.5,-739.5 "/>
<text text-anchor="start" x="326.5" y="-724.3" font-family="Times,serif" font-size="14.00" fill="#000000">actionAbout</text>
<text text-anchor="start" x="326.5" y="-709.3" font-family="Times,serif" font-size="14.00" fill="#000000">actionExit</text>
<text text-anchor="start" x="326.5" y="-694.3" font-family="Times,serif" font-size="14.00" fill="#000000">buttonBox</text>
<text text-anchor="start" x="326.5" y="-679.3" font-family="Times,serif" font-size="14.00" fill="#000000">centralwidget</text>
<text text-anchor="start" x="326.5" y="-664.3" font-family="Times,serif" font-size="14.00" fill="#000000">horizontalLayout</text>
<text text-anchor="start" x="326.5" y="-649.3" font-family="Times,serif" font-size="14.00" fill="#000000">horizontalLayout_2</text>
<text text-anchor="start" x="326.5" y="-634.3" font-family="Times,serif" font-size="14.00" fill="#000000">loginEdit</text>
<text text-anchor="start" x="326.5" y="-619.3" font-family="Times,serif" font-size="14.00" fill="#000000">loginLabel</text>
<text text-anchor="start" x="326.5" y="-604.3" font-family="Times,serif" font-size="14.00" fill="#000000">menuFile</text>
<text text-anchor="start" x="326.5" y="-589.3" font-family="Times,serif" font-size="14.00" fill="#000000">menuHelp</text>
<text text-anchor="start" x="326.5" y="-574.3" font-family="Times,serif" font-size="14.00" fill="#000000">menubar</text>
<text text-anchor="start" x="326.5" y="-559.3" font-family="Times,serif" font-size="14.00" fill="#000000">passwordEdit</text>
<text text-anchor="start" x="326.5" y="-544.3" font-family="Times,serif" font-size="14.00" fill="#000000">passwordLabel</text>
<text text-anchor="start" x="326.5" y="-529.3" font-family="Times,serif" font-size="14.00" fill="#000000">statusbar</text>
<text text-anchor="start" x="326.5" y="-514.3" font-family="Times,serif" font-size="14.00" fill="#000000">verticalLayout</text>
<text text-anchor="start" x="326.5" y="-499.3" font-family="Times,serif" font-size="14.00" fill="#000000">verticalLayout_2</text>
<text text-anchor="start" x="326.5" y="-484.3" font-family="Times,serif" font-size="14.00" fill="#000000">verticalLayout_3</text>
<polyline fill="none" stroke="#000000" points="318.5,-476.5 493.5,-476.5 "/>
<text text-anchor="start" x="326.5" y="-461.3" font-family="Times,serif" font-size="14.00" fill="#000000">retranslateUi(LoginWindow)</text>
<text text-anchor="start" x="326.5" y="-446.3" font-family="Times,serif" font-size="14.00" fill="#000000">setupUi(LoginWindow)</text>
</g>
<!-- 10&#45;&gt;7 -->
<g id="edge12" class="edge">
<title>10&#45;&gt;7</title>
<path fill="none" stroke="#000000" d="M410.7448,-762.686C411.1277,-775.773 411.5155,-789.03 411.9007,-802.197"/>
<polygon fill="#000000" stroke="#000000" points="411.9025,-802.2615 416.0763,-808.142 412.2535,-814.2564 408.0797,-808.376 411.9025,-802.2615"/>
<text text-anchor="middle" x="416.5" y="-784.8" font-family="Times,serif" font-size="14.00" fill="#00ff00">ui</text>
</g>
<!-- 11 -->
<g id="node12" class="node">
<title>11</title>
<polygon fill="none" stroke="#000000" points="840,-190 840,-319 1002,-319 1002,-190 840,-190"/>
<text text-anchor="middle" x="921" y="-303.8" font-family="Times,serif" font-size="14.00" fill="#000000">Ui_aboutDialog</text>
<polyline fill="none" stroke="#000000" points="840,-296 1002,-296 "/>
<text text-anchor="start" x="848" y="-280.8" font-family="Times,serif" font-size="14.00" fill="#000000">authorLabel</text>
<text text-anchor="start" x="848" y="-265.8" font-family="Times,serif" font-size="14.00" fill="#000000">line</text>
<text text-anchor="start" x="848" y="-250.8" font-family="Times,serif" font-size="14.00" fill="#000000">taskLabel</text>
<text text-anchor="start" x="848" y="-235.8" font-family="Times,serif" font-size="14.00" fill="#000000">verticalLayout</text>
<polyline fill="none" stroke="#000000" points="840,-228 1002,-228 "/>
<text text-anchor="start" x="848" y="-212.8" font-family="Times,serif" font-size="14.00" fill="#000000">retranslateUi(aboutDialog)</text>
<text text-anchor="start" x="848" y="-197.8" font-family="Times,serif" font-size="14.00" fill="#000000">setupUi(aboutDialog)</text>
</g>
<!-- 11&#45;&gt;1 -->
<g id="edge13" class="edge">
<title>11&#45;&gt;1</title>
<path fill="none" stroke="#000000" d="M921,-319.1741C921,-387.2864 921,-492.885 921,-553.4703"/>
<polygon fill="#000000" stroke="#000000" points="921.0001,-553.6856 925,-559.6857 921,-565.6856 917,-559.6856 921.0001,-553.6856"/>
<text text-anchor="middle" x="926.5" y="-408.8" font-family="Times,serif" font-size="14.00" fill="#00ff00">ui</text>
</g>
<!-- 12 -->
<g id="node13" class="node">
<title>12</title>
<polygon fill="none" stroke="#000000" points="982.5,-521 982.5,-680 1185.5,-680 1185.5,-521 982.5,-521"/>
<text text-anchor="middle" x="1084" y="-664.8" font-family="Times,serif" font-size="14.00" fill="#000000">Ui_decryptUsersDialog</text>
<polyline fill="none" stroke="#000000" points="982.5,-657 1185.5,-657 "/>
<text text-anchor="start" x="990.5" y="-641.8" font-family="Times,serif" font-size="14.00" fill="#000000">buttonBox</text>
<text text-anchor="start" x="990.5" y="-626.8" font-family="Times,serif" font-size="14.00" fill="#000000">passEdit</text>
<text text-anchor="start" x="990.5" y="-611.8" font-family="Times,serif" font-size="14.00" fill="#000000">promptLabel</text>
<text text-anchor="start" x="990.5" y="-596.8" font-family="Times,serif" font-size="14.00" fill="#000000">verticalLayout</text>
<text text-anchor="start" x="990.5" y="-581.8" font-family="Times,serif" font-size="14.00" fill="#000000">verticalLayout_2</text>
<text text-anchor="start" x="990.5" y="-566.8" font-family="Times,serif" font-size="14.00" fill="#000000">verticalLayout_3</text>
<polyline fill="none" stroke="#000000" points="982.5,-559 1185.5,-559 "/>
<text text-anchor="start" x="990.5" y="-543.8" font-family="Times,serif" font-size="14.00" fill="#000000">retranslateUi(decryptUsersDialog)</text>
<text text-anchor="start" x="990.5" y="-528.8" font-family="Times,serif" font-size="14.00" fill="#000000">setupUi(decryptUsersDialog)</text>
</g>
<!-- 12&#45;&gt;5 -->
<g id="edge14" class="edge">
<title>12&#45;&gt;5</title>
<path fill="none" stroke="#000000" d="M1081.4551,-680.2399C1079.1299,-753.0956 1075.7546,-858.856 1073.7287,-922.3356"/>
<polygon fill="#000000" stroke="#000000" points="1073.725,-922.4516 1077.5316,-928.5762 1073.3422,-934.4455 1069.5356,-928.3209 1073.725,-922.4516"/>
<text text-anchor="middle" x="1083.5" y="-784.8" font-family="Times,serif" font-size="14.00" fill="#00ff00">ui</text>
</g>
<!-- 13 -->
<g id="node14" class="node">
<title>13</title>
<polygon fill="none" stroke="#000000" points="123.5,-528.5 123.5,-672.5 300.5,-672.5 300.5,-528.5 123.5,-528.5"/>
<text text-anchor="middle" x="212" y="-657.3" font-family="Times,serif" font-size="14.00" fill="#000000">Users</text>
<polyline fill="none" stroke="#000000" points="123.5,-649.5 300.5,-649.5 "/>
<text text-anchor="start" x="131.5" y="-634.3" font-family="Times,serif" font-size="14.00" fill="#000000">usersReaderWriter</text>
<polyline fill="none" stroke="#000000" points="123.5,-626.5 300.5,-626.5 "/>
<text text-anchor="start" x="131.5" y="-611.3" font-family="Times,serif" font-size="14.00" fill="#000000">addAccount(acc)</text>
<text text-anchor="start" x="131.5" y="-596.3" font-family="Times,serif" font-size="14.00" fill="#000000">addAccountByLogin(login)</text>
<text text-anchor="start" x="131.5" y="-581.3" font-family="Times,serif" font-size="14.00" fill="#000000">getAccount(login, password)</text>
<text text-anchor="start" x="131.5" y="-566.3" font-family="Times,serif" font-size="14.00" fill="#000000">hasAccountWithLogin(login)</text>
<text text-anchor="start" x="131.5" y="-551.3" font-family="Times,serif" font-size="14.00" fill="#000000">save()</text>
<text text-anchor="start" x="131.5" y="-536.3" font-family="Times,serif" font-size="14.00" fill="#000000">updateAccount(old, new)</text>
</g>
<!-- 13&#45;&gt;7 -->
<g id="edge15" class="edge">
<title>13&#45;&gt;7</title>
<path fill="none" stroke="#000000" d="M251.2835,-672.5517C271.6688,-709.9413 297.5271,-757.3693 322.7191,-803.575"/>
<polygon fill="#000000" stroke="#000000" points="322.8467,-803.8091 329.2308,-807.1623 328.591,-814.3449 322.2069,-810.9918 322.8467,-803.8091"/>
<text text-anchor="middle" x="329" y="-784.8" font-family="Times,serif" font-size="14.00" fill="#00ff00">users</text>
</g>
<!-- 14&#45;&gt;13 -->
<g id="edge16" class="edge">
<title>14&#45;&gt;13</title>
<path fill="none" stroke="#000000" d="M212,-296.5805C212,-350.8623 212,-446.556 212,-516.0941"/>
<polygon fill="#000000" stroke="#000000" points="212.0001,-516.3221 216,-522.3221 212,-528.3221 208,-522.322 212.0001,-516.3221"/>
<text text-anchor="middle" x="263.5" y="-408.8" font-family="Times,serif" font-size="14.00" fill="#00ff00">usersReaderWriter</text>
</g>
</g>
</svg>
